{"asset":{"version":"2.0","generator":"Blockbench 5.0.7 glTF exporter"},"scenes":[{"nodes":[22],"name":"blockbench_export"}],"scene":0,"nodes":[{"translation":[0,0.1875,-0.0625],"name":"Head_JNT"},{"translation":[0,0.125,-0.0625],"name":"Neck_JNT","children":[0]},{"rotation":[0,0,0.23768589232617307,0.9713420698132614],"translation":[-0.0421875,0.4390625,-0.0109375],"name":"Arm_Hand_L"},{"translation":[0.0296875,0.478125,0],"name":"Arm_Lower_L","children":[2]},{"rotation":[0,0,0.5187732581605214,0.8549118706729466],"translation":[-0.062266875,0.30486875,-0.0625],"name":"Arm_Upper_L","children":[3]},{"rotation":[0,0,0.6851829903263591,0.7283709698824002],"name":"Clav_L_JNT","children":[4]},{"rotation":[0,0,-0.23768589232617307,0.9713420698132614],"translation":[0.0421875,0.4390625,-0.0109375],"name":"Arm_Hand_R"},{"translation":[-0.0296875,0.478125,0],"name":"Arm_Lower_R","children":[6]},{"rotation":[0,0,-0.5187732581605214,0.8549118706729466],"translation":[0.062266875,0.30486875,-0.0625],"name":"Arm_Upper_R","children":[7]},{"rotation":[0,0,-0.6851829903263591,0.7283709698824002],"name":"Clav_R_JNT","children":[8]},{"translation":[0,0.3125,0.0625],"name":"Spine3_JNT","children":[1,5,9]},{"translation":[0,0.3125,0],"name":"Spine2_JNT","children":[10]},{"translation":[0,0.1875,0],"name":"Spine1_JNT","children":[11]},{"rotation":[-0.6587182880400894,0.028760264094135752,1.346732157389563e-8,0.751839786264846],"translation":[0,0.6875,0],"name":"Leg_Foot_L"},{"rotation":[0.06534085273017606,0.0028528750806666426,0.0869691427549664,0.994061769849708],"translation":[-0.02263875,0.56856625,0],"name":"Leg_Lower_L","children":[13]},{"rotation":[0,0,0.13052619222005157,0.9914448613738104],"translation":[0.0859375,0.1875,-0.0625],"name":"Leg_Upper_L","children":[14]},{"rotation":[0,0,0.9807852804032304,0.19509032201612833],"translation":[0,-0.0125,0],"name":"Hip_L_JNT","children":[15]},{"rotation":[-0.6587182880400894,-0.028760264094135752,-1.346732157389563e-8,0.751839786264846],"translation":[0,0.6875,0],"name":"Leg_Foot_R"},{"rotation":[0.06534085273017606,-0.0028528750806666426,-0.0869691427549664,0.994061769849708],"translation":[0.02263875,0.56856625,0],"name":"Leg_Lower_R","children":[17]},{"rotation":[0,0,-0.13052619222005157,0.9914448613738104],"translation":[-0.0859375,0.1875,-0.0625],"name":"Leg_Upper_R","children":[18]},{"rotation":[0,0,-0.9807852804032304,0.19509032201612833],"translation":[0,-0.0125,0],"name":"Hip_R_JNT","children":[19]},{"translation":[0,1.4875,-0.0625],"name":"Root_JNT","children":[12,16,20]},{"name":"armature","mesh":0,"children":[21],"skin":0}],"bufferViews":[{"buffer":0,"byteOffset":0,"byteLength":24336,"target":34962,"byteStride":12},{"buffer":0,"byteOffset":24336,"byteLength":24336,"target":34962,"byteStride":12},{"buffer":0,"byteOffset":48672,"byteLength":16224,"target":34962,"byteStride":8},{"buffer":0,"byteOffset":64896,"byteLength":16224,"target":34962,"byteStride":8},{"buffer":0,"byteOffset":81120,"byteLength":32448,"target":34962,"byteStride":16},{"buffer":0,"byteOffset":113568,"byteLength":5808,"target":34963},{"buffer":0,"byteOffset":119376,"byteLength":1408},{"buffer":0,"byteOffset":120784,"byteLength":20},{"buffer":0,"byteOffset":120804,"byteLength":60},{"buffer":0,"byteOffset":120864,"byteLength":24},{"buffer":0,"byteOffset":120888,"byteLength":96},{"buffer":0,"byteOffset":120984,"byteLength":16},{"buffer":0,"byteOffset":121000,"byteLength":64},{"buffer":0,"byteOffset":121064,"byteLength":204},{"buffer":0,"byteOffset":121268,"byteLength":816},{"buffer":0,"byteOffset":122084,"byteLength":204},{"buffer":0,"byteOffset":122288,"byteLength":816},{"buffer":0,"byteOffset":123104,"byteLength":208},{"buffer":0,"byteOffset":123312,"byteLength":832},{"buffer":0,"byteOffset":124144,"byteLength":200},{"buffer":0,"byteOffset":124344,"byteLength":800},{"buffer":0,"byteOffset":125144,"byteLength":24},{"buffer":0,"byteOffset":125168,"byteLength":96},{"buffer":0,"byteOffset":125264,"byteLength":12},{"buffer":0,"byteOffset":125276,"byteLength":48},{"buffer":0,"byteOffset":125324,"byteLength":8},{"buffer":0,"byteOffset":125332,"byteLength":24},{"buffer":0,"byteOffset":125356,"byteLength":12},{"buffer":0,"byteOffset":125368,"byteLength":48},{"buffer":0,"byteOffset":125416,"byteLength":12},{"buffer":0,"byteOffset":125428,"byteLength":36},{"buffer":0,"byteOffset":125464,"byteLength":204},{"buffer":0,"byteOffset":125668,"byteLength":816},{"buffer":0,"byteOffset":126484,"byteLength":204},{"buffer":0,"byteOffset":126688,"byteLength":816},{"buffer":0,"byteOffset":127504,"byteLength":8},{"buffer":0,"byteOffset":127512,"byteLength":32},{"buffer":0,"byteOffset":127544,"byteLength":8},{"buffer":0,"byteOffset":127552,"byteLength":32},{"buffer":0,"byteOffset":127584,"byteLength":208},{"buffer":0,"byteOffset":127792,"byteLength":832},{"buffer":0,"byteOffset":128624,"byteLength":208},{"buffer":0,"byteOffset":128832,"byteLength":832},{"buffer":0,"byteOffset":129664,"byteLength":212},{"buffer":0,"byteOffset":129876,"byteLength":848},{"buffer":0,"byteOffset":130724,"byteLength":208},{"buffer":0,"byteOffset":130932,"byteLength":832},{"buffer":0,"byteOffset":131764,"byteLength":212},{"buffer":0,"byteOffset":131976,"byteLength":848},{"buffer":0,"byteOffset":132824,"byteLength":208},{"buffer":0,"byteOffset":133032,"byteLength":832}],"buffers":[{"byteLength":133864,"uri":"data:application/octet-stream;base64,"}],"accessors":[{"bufferView":0,"componentType":5126,"count":2028,"max":[0.8535687327384949,2.9230668544769287,0.10419562458992004],"min":[-0.8535687327384949,-0.005630588624626398,-0.34900686144828796],"type":"VEC3"},{"bufferView":1,"componentType":5126,"count":2028,"max":[0.9998478293418884,0.9832548499107361,1],"min":[-0.9998478293418884,-0.9990496039390564,-1],"type":"VEC3"},{"bufferView":2,"componentType":5126,"count":2028,"max":[0.4932723343372345,0.515625],"min":[0,0],"type":"VEC2"},{"bufferView":3,"componentType":5123,"count":2028,"max":[21,21,19,11],"min":[0,0,0,0],"type":"VEC4"},{"bufferView":4,"componentType":5126,"count":2028,"max":[1,0.4804399311542511,0.3333333432674408,0.19529876112937927],"min":[0.3242216110229492,0,0,0],"type":"VEC4"},{"bufferView":5,"componentType":5123,"count":2904,"max":[2027],"min":[0],"type":"SCALAR"},{"bufferView":6,"componentType":5126,"count":22,"max":[1,0.9981347918510437,6.440171063104572e-8,0,0.9981347918510437,1,0.13052614033222198,0,0.04213317483663559,0.13040190935134888,1,0,2.2957100868225098,1.7754806280136108,0.125,1],"min":[-0.9990482330322266,-0.9981347918510437,-6.440171063104572e-8,0,-0.9981347918510437,-0.9981347918510437,-0.9659258723258972,0,-0.04213317483663559,-0.9650065302848816,0.25881892442703247,0,-2.2957100868225098,-2.612499952316284,0,1],"type":"MAT4"},{"bufferView":7,"componentType":5126,"count":5,"max":[3],"min":[0],"type":"SCALAR"},{"bufferView":8,"componentType":5126,"count":5,"max":[0.0625,1.4874999523162842,-0.0625],"min":[-0.0625,1.3624999523162842,-0.0625],"type":"VEC3"},{"bufferView":9,"componentType":5126,"count":6,"max":[3],"min":[0],"type":"SCALAR"},{"bufferView":10,"componentType":5126,"count":6,"max":[0.10886687785387039,0,0.002852844540029764,0.9999904632568359],"min":[-0.06540312618017197,-0.04352599382400513,0,0.9940563440322876],"type":"VEC4"},{"bufferView":11,"componentType":5126,"count":4,"max":[3],"min":[0],"type":"SCALAR"},{"bufferView":12,"componentType":5126,"count":4,"max":[0,0,0,1],"min":[0,-0.05834810435771942,0,0.998296320438385],"type":"VEC4"},{"bufferView":13,"componentType":5126,"count":51,"max":[3],"min":[0],"type":"SCALAR"},{"bufferView":14,"componentType":5126,"count":51,"max":[0.08505071699619293,0.0683244988322258,0.6528849601745605,0.7574536204338074],"min":[-0.14521661400794983,-0.1300865262746811,0.6397955417633057,0.7434052228927612],"type":"VEC4"},{"bufferView":15,"componentType":5126,"count":51,"max":[3],"min":[0],"type":"SCALAR"},{"bufferView":16,"componentType":5126,"count":51,"max":[0.08505071699619293,0.1300865262746811,-0.6397955417633057,0.7574536204338074],"min":[-0.14521661400794983,-0.0683244988322258,-0.6528849601745605,0.7434052228927612],"type":"VEC4"},{"bufferView":17,"componentType":5126,"count":52,"max":[3],"min":[0],"type":"SCALAR"},{"bufferView":18,"componentType":5126,"count":52,"max":[0.0061449515633285046,0.030892757698893547,0.9807851910591125,0.19509030878543854],"min":[-0.031207550317049026,-0.15689095854759216,0.9681554436683655,0.19257809221744537],"type":"VEC4"},{"bufferView":19,"componentType":5126,"count":50,"max":[3],"min":[0],"type":"SCALAR"},{"bufferView":20,"componentType":5126,"count":50,"max":[0.0074162790551781654,0.1545618176460266,-0.968529999256134,0.19509029388427734],"min":[-0.03074425831437111,-0.03728415071964264,-0.9807851314544678,0.1926525980234146],"type":"VEC4"},{"bufferView":21,"componentType":5126,"count":6,"max":[2.2083332538604736],"min":[0],"type":"SCALAR"},{"bufferView":22,"componentType":5126,"count":6,"max":[0,0,0,1],"min":[-0.06540312618017197,0,0,0.9978589415550232],"type":"VEC4"},{"bufferView":23,"componentType":5126,"count":3,"max":[3],"min":[0],"type":"SCALAR"},{"bufferView":24,"componentType":5126,"count":3,"max":[0.3184221088886261,0.24609288573265076,-0.4992380142211914,0.8030317425727844],"min":[-0.21293126046657562,-0.21127553284168243,-0.6262120008468628,0.6795796751976013],"type":"VEC4"},{"bufferView":25,"componentType":5126,"count":2,"max":[3],"min":[0],"type":"SCALAR"},{"bufferView":26,"componentType":5126,"count":2,"max":[1,1,1],"min":[1,1,1],"type":"VEC3"},{"bufferView":27,"componentType":5126,"count":3,"max":[3],"min":[0],"type":"SCALAR"},{"bufferView":28,"componentType":5126,"count":3,"max":[0.3184221088886261,0.21127553284168243,0.6262120008468628,0.8030317425727844],"min":[-0.21293126046657562,-0.24609288573265076,0.4992380142211914,0.6795796751976013],"type":"VEC4"},{"bufferView":29,"componentType":5126,"count":3,"max":[3],"min":[0],"type":"SCALAR"},{"bufferView":30,"componentType":5126,"count":3,"max":[1,1,1],"min":[1,1,1],"type":"VEC3"},{"bufferView":31,"componentType":5126,"count":51,"max":[3],"min":[0],"type":"SCALAR"},{"bufferView":32,"componentType":5126,"count":51,"max":[-0.5168594717979431,0.14144578576087952,-0.07720569521188736,0.7976995706558228],"min":[-0.6205778121948242,-0.10529392957687378,-0.27975645661354065,0.7731983065605164],"type":"VEC4"},{"bufferView":33,"componentType":5126,"count":51,"max":[3],"min":[0],"type":"SCALAR"},{"bufferView":34,"componentType":5126,"count":51,"max":[-0.5168594717979431,0.10529392957687378,0.27975645661354065,0.7976995706558228],"min":[-0.6205778121948242,-0.14144578576087952,0.07720569521188736,0.7731983065605164],"type":"VEC4"},{"bufferView":35,"componentType":5126,"count":2,"max":[3],"min":[0],"type":"SCALAR"},{"bufferView":36,"componentType":5126,"count":2,"max":[-0.10574697703123093,0.02587611973285675,-0.2362731695175171,0.9655687212944031],"min":[-0.10574697703123093,0.02587611973285675,-0.2362731695175171,0.9655687212944031],"type":"VEC4"},{"bufferView":37,"componentType":5126,"count":2,"max":[3],"min":[0],"type":"SCALAR"},{"bufferView":38,"componentType":5126,"count":2,"max":[-0.10574697703123093,-0.02587611973285675,0.2362731695175171,0.9655687212944031],"min":[-0.10574697703123093,-0.02587611973285675,0.2362731695175171,0.9655687212944031],"type":"VEC4"},{"bufferView":39,"componentType":5126,"count":52,"max":[3],"min":[0],"type":"SCALAR"},{"bufferView":40,"componentType":5126,"count":52,"max":[0.06345859169960022,0.018937738612294197,0.14917780458927155,0.9911758899688721],"min":[-0.3692348301410675,-0.048638809472322464,0.10628629475831985,0.9201242327690125],"type":"VEC4"},{"bufferView":41,"componentType":5126,"count":52,"max":[3],"min":[0],"type":"SCALAR"},{"bufferView":42,"componentType":5126,"count":52,"max":[0.06345859169960022,0.048610687255859375,-0.10628629475831985,0.9911590218544006],"min":[-0.3692348301410675,-0.018937738612294197,-0.14917780458927155,0.9201242327690125],"type":"VEC4"},{"bufferView":43,"componentType":5126,"count":53,"max":[3],"min":[0],"type":"SCALAR"},{"bufferView":44,"componentType":5126,"count":53,"max":[0.5714553594589233,0.048869792371988297,0.07983829826116562,0.9530936479568481],"min":[0.2864648103713989,-0.08263512700796127,0.017652222886681557,0.8183989524841309],"type":"VEC4"},{"bufferView":45,"componentType":5126,"count":52,"max":[3],"min":[0],"type":"SCALAR"},{"bufferView":46,"componentType":5126,"count":52,"max":[0.5745286345481873,0.08263512700796127,-0.017652222886681557,0.9530243873596191],"min":[0.2864648103713989,-0.048869792371988297,-0.07983829826116562,0.816093385219574],"type":"VEC4"},{"bufferView":47,"componentType":5126,"count":53,"max":[3],"min":[0],"type":"SCALAR"},{"bufferView":48,"componentType":5126,"count":53,"max":[-0.7494887113571167,0.028523944318294525,0.004375122021883726,0.661392092704773],"min":[-0.7654241919517517,0.028425535187125206,0.003679318353533745,0.6428830623626709],"type":"VEC4"},{"bufferView":49,"componentType":5126,"count":52,"max":[3],"min":[0],"type":"SCALAR"},{"bufferView":50,"componentType":5126,"count":52,"max":[-0.7500484585762024,-0.028425462543964386,-0.0037034708075225353,0.6607572436332703],"min":[-0.7654349207878113,-0.028520818799734116,-0.0043755946680903435,0.642870306968689],"type":"VEC4"}],"materials":[{"pbrMetallicRoughness":{"metallicFactor":0,"roughnessFactor":1,"baseColorTexture":{"index":0}},"alphaMode":"MASK","alphaCutoff":0.05,"doubleSided":true}],"textures":[{"sampler":0,"source":0,"name":"texture"}],"samplers":[{"magFilter":9728,"minFilter":9728,"wrapS":33071,"wrapT":33071}],"images":[{"mimeType":"image/png","uri":"data:image/png;base64,"}],"meshes":[{"primitives":[{"mode":4,"attributes":{"POSITION":0,"NORMAL":1,"TEXCOORD_0":2,"JOINTS_0":3,"WEIGHTS_0":4},"indices":5,"material":0}]}],"skins":[{"inverseBindMatrices":6,"joints":[21,12,11,10,1,0,5,4,3,2,9,8,7,6,16,15,14,13,20,19,18,17],"skeleton":21}],"animations":[{"name":"Jog","samplers":[{"input":7,"output":8,"interpolation":"LINEAR"},{"input":9,"output":10,"interpolation":"LINEAR"},{"input":11,"output":12,"interpolation":"LINEAR"},{"input":13,"output":14,"interpolation":"LINEAR"},{"input":15,"output":16,"interpolation":"LINEAR"},{"input":17,"output":18,"interpolation":"LINEAR"},{"input":19,"output":20,"interpolation":"LINEAR"},{"input":21,"output":22,"interpolation":"LINEAR"},{"input":23,"output":24,"interpolation":"LINEAR"},{"input":25,"output":26,"interpolation":"LINEAR"},{"input":27,"output":28,"interpolation":"LINEAR"},{"input":29,"output":30,"interpolation":"LINEAR"},{"input":31,"output":32,"interpolation":"LINEAR"},{"input":33,"output":34,"interpolation":"LINEAR"},{"input":35,"output":36,"interpolation":"LINEAR"},{"input":37,"output":38,"interpolation":"LINEAR"},{"input":39,"output":40,"interpolation":"LINEAR"},{"input":41,"output":42,"interpolation":"LINEAR"},{"input":43,"output":44,"interpolation":"LINEAR"},{"input":45,"output":46,"interpolation":"LINEAR"},{"input":47,"output":48,"interpolation":"LINEAR"},{"input":49,"output":50,"interpolation":"LINEAR"}],"channels":[{"sampler":0,"target":{"node":21,"path":"translation"}},{"sampler":1,"target":{"node":12,"path":"rotation"}},{"sampler":2,"target":{"node":10,"path":"rotation"}},{"sampler":3,"target":{"node":5,"path":"rotation"}},{"sampler":4,"target":{"node":9,"path":"rotation"}},{"sampler":5,"target":{"node":16,"path":"rotation"}},{"sampler":6,"target":{"node":20,"path":"rotation"}},{"sampler":7,"target":{"node":0,"path":"rotation"}},{"sampler":8,"target":{"node":8,"path":"rotation"}},{"sampler":9,"target":{"node":8,"path":"scale"}},{"sampler":10,"target":{"node":4,"path":"rotation"}},{"sampler":11,"target":{"node":4,"path":"scale"}},{"sampler":12,"target":{"node":7,"path":"rotation"}},{"sampler":13,"target":{"node":3,"path":"rotation"}},{"sampler":14,"target":{"node":6,"path":"rotation"}},{"sampler":15,"target":{"node":2,"path":"rotation"}},{"sampler":16,"target":{"node":15,"path":"rotation"}},{"sampler":17,"target":{"node":19,"path":"rotation"}},{"sampler":18,"target":{"node":14,"path":"rotation"}},{"sampler":19,"target":{"node":18,"path":"rotation"}},{"sampler":20,"target":{"node":13,"path":"rotation"}},{"sampler":21,"target":{"node":17,"path":"rotation"}}]}]}